<svg version="1.1" id="Layer_1" xmlns="http://www.w3.org/2000/svg" xmlns:xlink="http://www.w3.org/1999/xlink" x="0px" y="0px"
	 width="100%" viewBox="0 0 2226 525" enable-background="new 0 0 2226 525" xml:space="preserve">
<path fill="#212234" opacity="1.000000" stroke="none" 
	d="
M1584.000000,526.000000 
	C1056.047852,526.000000 528.595703,526.000000 1.071781,526.000000 
	C1.071781,351.063751 1.071781,176.127472 1.071781,1.095594 
	C743.000000,1.095594 1485.000000,1.095594 2226.970459,1.095594 
	C2226.970459,176.071213 2226.970459,351.035614 2226.970459,526.000000 
	C2012.793945,526.000000 1798.646973,526.000000 1584.000000,526.000000 
M299.187134,115.344551 
	C282.608063,105.754059 265.904083,96.370865 249.501450,86.487541 
	C241.020538,81.377419 233.165665,81.023766 224.694260,86.281494 
	C215.641113,91.900246 206.290863,97.041061 197.059113,102.371086 
	C150.320374,129.356049 103.598351,156.370132 56.815796,183.278931 
	C49.461994,187.508759 45.902027,193.413086 45.932011,201.994324 
	C46.066521,240.483231 45.986835,278.972900 45.981796,317.462311 
	C45.978436,343.121887 45.915195,368.781647 45.989685,394.441010 
	C46.023647,406.140411 53.070248,413.210785 64.688774,413.118408 
	C71.504509,413.064240 78.376831,412.926849 85.119820,412.038452 
	C151.154221,403.338165 200.359985,369.810516 232.697556,311.557709 
	C233.932281,309.333496 235.274414,307.168915 236.850296,304.495026 
	C241.293488,311.965912 244.969040,318.862122 249.301056,325.317810 
	C287.074860,381.609314 339.758179,411.216522 407.666321,413.125000 
	C421.278687,413.507568 427.984436,406.499664 427.985016,392.998901 
	C427.987854,329.183044 427.952606,265.367157 428.013000,201.551376 
	C428.020508,193.623749 424.816162,187.921616 417.939392,183.959900 
	C378.537964,161.260818 339.183838,138.479691 299.187134,115.344551 
M1212.682007,254.499817 
	C1212.682007,297.230011 1212.682007,339.960175 1212.682007,382.633331 
	C1224.674438,382.633331 1235.744507,382.633331 1247.780029,382.633331 
	C1247.150391,335.298798 1246.525879,288.349884 1245.897949,241.137604 
	C1246.381226,242.390213 1246.893188,243.510223 1247.251709,244.677368 
	C1252.813965,262.786346 1258.348877,280.903748 1263.905029,299.014587 
	C1272.139404,325.855103 1280.346802,352.704132 1288.735596,379.496307 
	C1289.180420,380.916779 1291.177490,382.812958 1292.494141,382.846741 
	C1303.142944,383.119812 1313.801758,382.999878 1324.822510,382.999878 
	C1340.213013,336.191132 1355.567383,289.492584 1370.921631,242.794022 
	C1371.349731,242.888657 1371.777832,242.983292 1372.205933,243.077927 
	C1372.242920,243.795090 1372.337646,244.514648 1372.308105,245.229065 
	C1371.875366,255.696808 1371.121582,266.161407 1371.037598,276.631500 
	C1370.779297,308.789673 1370.768677,340.949860 1370.677856,373.109314 
	C1370.649902,383.002014 1370.673584,383.002106 1380.718384,383.002106 
	C1389.307983,383.002106 1397.897583,383.002075 1406.533936,383.002075 
	C1406.533936,322.020355 1406.533936,261.768433 1406.533936,201.009659 
	C1404.673828,201.009659 1403.050903,201.009689 1401.427979,201.009674 
	C1388.929077,201.009628 1376.430176,201.009491 1363.931274,201.009476 
	C1354.652466,201.009460 1354.572021,200.983017 1351.632568,209.919479 
	C1339.019531,248.266541 1326.465942,286.633148 1313.867676,324.985077 
	C1312.272949,329.839752 1310.542480,334.649811 1308.875000,339.480560 
	C1303.553711,325.387604 1299.269531,311.435455 1294.965088,297.489563 
	C1285.407104,266.524048 1275.788208,235.577133 1266.354492,204.573883 
	C1265.423096,201.513306 1263.919678,200.924545 1261.048340,200.949951 
	C1246.384033,201.079727 1231.718140,201.001221 1217.052734,201.022369 
	C1215.771484,201.024216 1214.490479,201.220276 1212.682007,201.369690 
	C1212.682007,218.923203 1212.682007,236.211502 1212.682007,254.499817 
M617.561218,323.958923 
	C628.935547,342.540771 640.236084,361.168884 651.808167,379.626770 
	C652.863831,381.310699 655.635193,382.799591 657.651672,382.854767 
	C668.974426,383.164551 680.309998,383.016693 691.641235,382.994049 
	C692.857300,382.991608 694.072998,382.788910 696.112488,382.604706 
	C678.284729,355.830902 660.901917,329.725342 643.280273,303.261078 
	C645.423218,302.020966 647.115723,301.020264 648.827637,300.054016 
	C671.280334,287.381470 680.632812,267.279327 675.774170,242.122574 
	C671.863037,221.871979 657.376038,208.558746 635.239136,203.959229 
	C620.237915,200.842361 605.133728,200.961914 589.981018,201.001495 
	C577.341187,201.034500 564.701294,201.008255 551.670898,201.008255 
	C551.670898,261.769562 551.670898,322.142700 551.670898,382.653839 
	C564.545349,382.653839 577.090759,382.653839 590.084351,382.653839 
	C590.084351,359.056641 590.084351,335.805573 590.084351,312.323425 
	C592.691528,312.323425 594.912476,312.661865 596.993530,312.265717 
	C606.841980,310.390991 613.585144,313.924683 617.561218,323.958923 
M1809.122070,378.482605 
	C1810.922241,382.308960 1813.941284,383.188354 1818.048828,383.097565 
	C1830.285889,382.827087 1842.532837,383.000488 1856.035767,383.000488 
	C1836.122803,356.616180 1816.954712,331.218781 1797.704346,305.712280 
	C1815.968140,286.048584 1833.865234,266.779694 1852.640137,246.565857 
	C1837.944458,246.565857 1824.653076,246.504395 1811.364502,246.666702 
	C1810.118408,246.681915 1808.627319,247.873199 1807.691650,248.915039 
	C1790.577881,267.969971 1773.533325,287.086914 1756.458130,306.176361 
	C1756.184448,306.482300 1755.711304,306.609985 1754.507690,307.277771 
	C1755.000488,301.048279 1755.782959,295.494110 1755.822632,289.934631 
	C1756.052612,257.777283 1756.107544,225.618668 1756.219727,193.460495 
	C1756.220825,193.127594 1756.335693,192.674301 1756.165771,192.482376 
	C1755.404663,191.622360 1754.568726,190.140213 1753.743408,190.129227 
	C1742.141235,189.974747 1730.536377,190.024307 1719.037598,190.024307 
	C1719.037598,254.675995 1719.037598,318.716644 1719.037598,382.662292 
	C1731.507812,382.662292 1743.586914,382.662292 1756.225952,382.662292 
	C1756.225952,380.531830 1756.226074,378.740173 1756.226074,376.948486 
	C1756.225708,366.116577 1756.164795,355.283936 1756.288208,344.453461 
	C1756.307373,342.773712 1756.637817,340.497070 1757.734985,339.534698 
	C1762.321411,335.511932 1767.254883,331.884949 1772.468262,327.793457 
	C1784.750366,344.767029 1796.730225,361.322906 1809.122070,378.482605 
M1472.838135,279.160187 
	C1483.958130,275.016998 1495.207642,271.729828 1507.312012,272.362823 
	C1521.458740,273.102600 1529.536011,284.050964 1525.750000,297.862427 
	C1513.687622,298.555786 1501.570557,299.010437 1489.499023,300.012390 
	C1476.769287,301.068909 1464.569458,304.169128 1453.917847,311.690338 
	C1434.879395,325.133698 1438.372681,358.562225 1449.329468,371.810944 
	C1464.223022,389.819733 1501.328369,388.010834 1515.364990,377.246521 
	C1520.416138,373.372955 1524.986694,368.872681 1530.248413,364.243225 
	C1532.253296,369.432007 1534.027588,374.398682 1536.125000,379.224945 
	C1536.757935,380.681610 1538.246826,382.782440 1539.412354,382.827942 
	C1547.495605,383.143311 1555.597046,382.994263 1563.668213,382.994263 
	C1563.925659,381.661407 1564.156494,381.022949 1564.156738,380.384460 
	C1564.163696,350.232147 1564.743164,320.064362 1563.956299,289.932312 
	C1563.304810,264.981873 1550.806763,251.344727 1526.326416,246.099731 
	C1513.132080,243.272827 1499.900879,243.644760 1486.673828,245.760712 
	C1475.142334,247.605423 1464.093872,250.947769 1453.310913,256.704102 
	C1456.523560,263.449585 1459.503540,269.901459 1462.655396,276.268188 
	C1465.669434,282.356628 1465.748047,282.317749 1472.838135,279.160187 
M1954.485229,356.202362 
	C1946.525635,356.180023 1938.429565,357.085144 1930.635742,355.937622 
	C1915.548828,353.716309 1904.208252,337.864349 1906.689087,323.287292 
	C1936.008301,323.287292 1965.420044,323.287292 1996.066895,323.287292 
	C1995.331177,311.658752 1995.517822,300.455933 1993.729492,289.577820 
	C1990.875244,272.215973 1981.596313,258.731934 1965.347412,250.998795 
	C1947.410278,242.462296 1928.761230,242.009903 1909.938599,247.591202 
	C1890.795410,253.267654 1878.343140,266.193909 1872.106567,284.864258 
	C1866.293213,302.267090 1865.709717,320.120972 1870.012939,337.988556 
	C1874.255981,355.606903 1884.257080,368.875153 1900.582397,377.135284 
	C1910.699585,382.254272 1921.513184,384.626892 1932.758423,385.143372 
	C1949.854370,385.928589 1966.677734,384.622284 1982.628174,377.755035 
	C1984.465454,376.964020 1987.262939,375.338501 1987.327148,373.990936 
	C1987.749878,365.114166 1987.545654,356.207520 1987.545654,347.686920 
	C1976.386841,350.626038 1965.884644,353.392242 1954.485229,356.202362 
M746.764709,379.864258 
	C755.538635,381.629181 764.243469,384.279449 773.101196,384.970490 
	C790.327515,386.314484 807.367249,384.637329 823.428467,377.511841 
	C825.177185,376.736023 827.657898,374.914062 827.723633,373.482056 
	C828.124023,364.763519 827.923462,356.017395 827.923462,346.624146 
	C825.899048,347.376160 824.682800,347.769043 823.513489,348.271240 
	C809.086792,354.467041 794.093506,357.499878 778.333313,356.994507 
	C760.794922,356.432159 749.085144,345.888031 746.621887,328.513458 
	C746.008301,324.185638 746.958557,323.165283 751.281189,323.197235 
	C777.441589,323.390625 803.604126,323.302368 829.765991,323.278778 
	C831.683838,323.277039 833.601440,323.043335 836.642395,322.843719 
	C835.716736,310.888580 835.767700,299.325500 833.737549,288.140167 
	C830.545471,270.552185 820.462708,257.476685 803.873169,250.082336 
	C790.442139,244.095779 776.316589,243.038162 761.856750,244.950745 
	C744.503296,247.246063 730.151917,254.826584 720.092590,269.360840 
	C709.684509,284.398987 707.188599,301.677887 707.817749,319.399384 
	C708.789429,346.766907 719.378052,368.365417 746.764709,379.864258 
M878.537292,246.520752 
	C874.744263,246.520752 870.951233,246.520752 867.102295,246.520752 
	C867.102295,292.300446 867.102295,337.505981 867.102295,383.000000 
	C878.083740,383.000000 888.728271,382.804413 899.359192,383.099487 
	C903.422668,383.212219 904.419800,381.876892 904.389648,378.021179 
	C904.230530,357.695221 904.174988,337.365967 904.373657,317.040680 
	C904.479675,306.197601 905.353149,295.406891 910.890808,285.626923 
	C917.464111,274.017822 938.928955,270.303375 948.773376,279.224426 
	C954.026672,283.984924 956.030273,290.442963 956.180054,297.204620 
	C956.582092,315.352386 956.507812,333.510223 956.731079,351.662689 
	C956.857300,361.929382 957.196899,372.193390 957.440369,382.458618 
	C967.720703,382.639099 978.001038,382.824768 988.281494,382.995544 
	C990.211304,383.027618 992.142029,383.000122 993.995483,383.000122 
	C993.995483,349.668335 994.416260,317.014709 993.831482,284.379059 
	C993.501526,265.959900 982.112976,252.373352 964.513855,246.959259 
	C954.997681,244.031769 945.307129,243.373093 935.410645,244.921585 
	C922.985657,246.865662 912.055115,251.325409 904.333130,261.839447 
	C903.557800,262.895142 902.430603,263.692322 900.971497,265.080627 
	C900.301636,263.096893 899.941284,262.044952 899.591003,260.989685 
	C898.033569,256.297546 897.811523,249.654755 894.565125,247.435928 
	C891.005676,245.003143 884.657227,246.651093 878.537292,246.520752 
M1032.486328,251.048508 
	C1029.057007,253.089127 1025.553467,255.018631 1022.239868,257.232452 
	C1021.127991,257.975403 1019.840759,259.401794 1019.767334,260.586060 
	C1019.481506,265.196747 1019.650940,269.835632 1019.650940,275.032318 
	C1025.876465,275.032318 1031.601807,275.032318 1037.349854,275.032318 
	C1037.349854,296.596649 1037.229980,317.585907 1037.426025,338.572174 
	C1037.481812,344.534576 1037.895874,350.607025 1039.124023,356.422424 
	C1042.043213,370.246185 1050.107910,379.523743 1064.223022,383.155334 
	C1078.499146,386.828369 1092.617920,385.705109 1106.625732,382.109009 
	C1115.744385,379.768066 1115.675781,379.501556 1115.675171,370.179108 
	C1115.674683,363.956268 1115.675049,357.733429 1115.675049,352.040466 
	C1107.048462,353.093353 1099.225830,354.566162 1091.356689,354.881470 
	C1080.774780,355.305542 1075.701172,349.936829 1075.687012,339.438019 
	C1075.659912,319.447571 1075.673096,299.457031 1075.691895,279.466553 
	C1075.693237,278.043732 1075.876221,276.621094 1076.001099,274.817078 
	C1088.782227,274.817078 1101.209473,274.817078 1113.871338,274.817078 
	C1113.871338,265.231232 1113.871338,256.062225 1113.871338,246.227600 
	C1100.960571,246.227600 1088.413818,246.227600 1075.474609,246.227600 
	C1075.474609,236.126389 1075.474609,226.690033 1075.474609,216.819061 
	C1067.763672,216.819061 1060.457397,216.713791 1053.161011,216.937134 
	C1052.115601,216.969147 1050.629395,218.391678 1050.180908,219.506134 
	C1047.703735,225.663193 1045.102661,231.815414 1043.289795,238.181641 
	C1041.634155,243.995789 1038.775391,248.351379 1032.486328,251.048508 
M2104.023438,246.516083 
	C2093.864014,246.516602 2083.699951,246.337509 2073.547607,246.606323 
	C2069.503906,246.713379 2067.976074,245.730560 2068.161377,241.409454 
	C2068.507812,233.345322 2068.260986,225.255707 2068.260986,216.807495 
	C2063.220947,216.807495 2058.916504,216.807495 2054.612061,216.807495 
	C2043.882935,216.807495 2042.988647,216.576660 2040.354126,226.782379 
	C2036.653198,241.119507 2029.066650,251.382690 2015.297119,257.047150 
	C2014.004395,257.578888 2012.438599,259.285675 2012.340088,260.551086 
	C2011.983887,265.132263 2012.199707,269.757935 2012.199707,274.978455 
	C2018.481934,274.978455 2024.201294,274.978455 2030.030029,274.978455 
	C2030.030029,297.076050 2029.950562,318.546478 2030.089478,340.015503 
	C2030.121704,344.986572 2030.496948,350.028442 2031.413452,354.906342 
	C2033.691650,367.031372 2039.541748,376.849182 2051.638916,381.361053 
	C2069.987305,388.204407 2088.255127,385.856354 2106.309326,379.819366 
	C2107.106689,379.552704 2108.011963,378.125854 2108.025391,377.226837 
	C2108.155029,368.631927 2108.102783,360.034241 2108.102783,351.183319 
	C2103.657715,352.255402 2099.831299,353.435791 2095.916016,354.050110 
	C2091.993896,354.665558 2087.983887,354.953247 2084.010742,354.967987 
	C2073.247070,355.007965 2068.267822,349.862671 2068.263184,338.979645 
	C2068.254639,319.327057 2068.260742,299.674469 2068.260986,280.021881 
	C2068.260986,278.419922 2068.261230,276.817932 2068.261230,274.681610 
	C2081.458008,274.681610 2094.030273,274.681610 2106.951172,274.681610 
	C2106.951172,265.679016 2107.001709,257.210907 2106.864014,248.745834 
	C2106.851807,247.995239 2105.612061,247.264618 2104.023438,246.516083 
M1603.170776,250.830444 
	C1603.170776,294.753174 1603.170776,338.675934 1603.170776,382.623291 
	C1615.966309,382.623291 1628.182617,382.623291 1640.909302,382.623291 
	C1640.909302,380.453735 1640.909302,378.654816 1640.909302,376.855927 
	C1640.908936,355.530090 1640.824341,334.203827 1640.934326,312.878540 
	C1641.024048,295.472473 1650.628784,283.816406 1667.729248,280.955322 
	C1674.987305,279.740936 1682.460449,279.812927 1690.427734,279.259155 
	C1691.296021,268.370117 1692.212036,256.881348 1693.118530,245.511459 
	C1668.366577,240.377090 1651.278809,250.766479 1637.710815,271.505463 
	C1635.386841,262.213562 1633.476440,254.575455 1631.460815,246.516220 
	C1622.774658,246.516220 1614.131958,246.426758 1605.498169,246.663696 
	C1604.692627,246.685822 1603.943848,248.773605 1603.170776,250.830444 
z"/>
<path fill="#81CF91" opacity="1.000000" stroke="none" 
	d="
M299.500366,115.535484 
	C339.183838,138.479691 378.537964,161.260818 417.939392,183.959900 
	C424.816162,187.921616 428.020508,193.623749 428.013000,201.551376 
	C427.952606,265.367157 427.987854,329.183044 427.985016,392.998901 
	C427.984436,406.499664 421.278687,413.507568 407.666321,413.125000 
	C339.758179,411.216522 287.074860,381.609314 249.301056,325.317810 
	C244.969040,318.862122 241.293488,311.965912 236.850296,304.495026 
	C235.274414,307.168915 233.932281,309.333496 232.697556,311.557709 
	C200.359985,369.810516 151.154221,403.338165 85.119820,412.038452 
	C78.376831,412.926849 71.504509,413.064240 64.688774,413.118408 
	C53.070248,413.210785 46.023647,406.140411 45.989685,394.441010 
	C45.915195,368.781647 45.978436,343.121887 45.981796,317.462311 
	C45.986835,278.972900 46.066521,240.483231 45.932011,201.994324 
	C45.902027,193.413086 49.461994,187.508759 56.815796,183.278931 
	C103.598351,156.370132 150.320374,129.356049 197.059113,102.371086 
	C206.290863,97.041061 215.641113,91.900246 224.694260,86.281494 
	C233.165665,81.023766 241.020538,81.377419 249.501450,86.487541 
	C265.904083,96.370865 282.608063,105.754059 299.500366,115.535484 
M392.088959,221.535187 
	C394.171997,212.333038 389.540558,207.163071 381.450195,204.392075 
	C380.031494,203.906143 377.610352,204.304138 376.513733,205.271042 
	C371.526093,209.668686 367.032623,214.628876 362.025146,219.001678 
	C334.340546,243.177292 302.207092,257.845367 265.916077,263.407440 
	C262.393677,263.947296 260.330811,264.511627 261.889099,268.927734 
	C282.895081,328.457306 324.453949,363.975983 386.355103,375.895264 
	C390.634064,376.719208 392.193604,375.560944 392.179382,370.878265 
	C392.029297,321.426788 392.089752,271.974701 392.088959,221.535187 
M81.822456,275.500000 
	C81.824234,306.995667 81.824158,338.491333 81.829292,369.987000 
	C81.830353,376.524414 81.907928,376.765411 88.261658,375.529999 
	C145.206223,364.457855 185.272995,332.338196 208.177536,278.987274 
	C210.112244,274.480865 211.471085,269.727203 213.269531,264.597626 
	C210.810638,264.137878 209.213989,263.805054 207.605759,263.543671 
	C165.228851,256.656250 129.090134,237.746231 99.338844,206.858582 
	C95.923126,203.312378 93.770905,203.488281 89.711227,205.472534 
	C83.486839,208.514816 81.431725,212.559647 81.638306,219.513016 
	C82.182396,237.827667 81.822212,256.169189 81.822456,275.500000 
M159.285568,209.256821 
	C175.827011,218.628922 193.472870,224.918594 212.221710,228.038696 
	C218.962341,229.160477 219.023895,229.025421 219.031082,222.406799 
	C219.061844,194.080704 219.075180,165.754578 219.063416,137.428482 
	C219.062714,135.736069 218.787811,134.043762 218.556366,131.384964 
	C187.691071,149.211441 157.774231,166.490128 127.241295,184.124664 
	C136.760727,194.557831 147.490540,201.993744 159.285568,209.256821 
M254.839706,183.500000 
	C254.842606,196.313736 254.842529,209.127487 254.849594,221.941223 
	C254.853378,228.792419 255.029099,229.052643 261.914001,227.904419 
	C281.652313,224.612579 300.170288,217.924362 317.297058,207.524490 
	C327.828796,201.129318 337.605286,193.773148 346.654633,184.162720 
	C316.125214,166.547180 286.036469,149.185944 254.839462,131.185211 
	C254.839462,149.303589 254.839462,165.901794 254.839706,183.500000 
z"/>
<path fill="#F4F4F6" opacity="1.000000" stroke="none" 
	d="
M1212.682007,253.999817 
	C1212.682007,236.211502 1212.682007,218.923203 1212.682007,201.369690 
	C1214.490479,201.220276 1215.771484,201.024216 1217.052734,201.022369 
	C1231.718140,201.001221 1246.384033,201.079727 1261.048340,200.949951 
	C1263.919678,200.924545 1265.423096,201.513306 1266.354492,204.573883 
	C1275.788208,235.577133 1285.407104,266.524048 1294.965088,297.489563 
	C1299.269531,311.435455 1303.553711,325.387604 1308.875000,339.480560 
	C1310.542480,334.649811 1312.272949,329.839752 1313.867676,324.985077 
	C1326.465942,286.633148 1339.019531,248.266541 1351.632568,209.919479 
	C1354.572021,200.983017 1354.652466,201.009460 1363.931274,201.009476 
	C1376.430176,201.009491 1388.929077,201.009628 1401.427979,201.009674 
	C1403.050903,201.009689 1404.673828,201.009659 1406.533936,201.009659 
	C1406.533936,261.768433 1406.533936,322.020355 1406.533936,383.002075 
	C1397.897583,383.002075 1389.307983,383.002106 1380.718384,383.002106 
	C1370.673584,383.002106 1370.649902,383.002014 1370.677856,373.109314 
	C1370.768677,340.949860 1370.779297,308.789673 1371.037598,276.631500 
	C1371.121582,266.161407 1371.875366,255.696808 1372.308105,245.229065 
	C1372.337646,244.514648 1372.242920,243.795090 1372.205933,243.077927 
	C1371.777832,242.983292 1371.349731,242.888657 1370.921631,242.794022 
	C1355.567383,289.492584 1340.213013,336.191132 1324.822510,382.999878 
	C1313.801758,382.999878 1303.142944,383.119812 1292.494141,382.846741 
	C1291.177490,382.812958 1289.180420,380.916779 1288.735596,379.496307 
	C1280.346802,352.704132 1272.139404,325.855103 1263.905029,299.014587 
	C1258.348877,280.903748 1252.813965,262.786346 1247.251709,244.677368 
	C1246.893188,243.510223 1246.381226,242.390213 1245.897949,241.137604 
	C1246.525879,288.349884 1247.150391,335.298798 1247.780029,382.633331 
	C1235.744507,382.633331 1224.674438,382.633331 1212.682007,382.633331 
	C1212.682007,339.960175 1212.682007,297.230011 1212.682007,253.999817 
z"/>
<path fill="#F4F4F5" opacity="1.000000" stroke="none" 
	d="
M617.361450,323.652344 
	C613.585144,313.924683 606.841980,310.390991 596.993530,312.265717 
	C594.912476,312.661865 592.691528,312.323425 590.084351,312.323425 
	C590.084351,335.805573 590.084351,359.056641 590.084351,382.653839 
	C577.090759,382.653839 564.545349,382.653839 551.670898,382.653839 
	C551.670898,322.142700 551.670898,261.769562 551.670898,201.008255 
	C564.701294,201.008255 577.341187,201.034500 589.981018,201.001495 
	C605.133728,200.961914 620.237915,200.842361 635.239136,203.959229 
	C657.376038,208.558746 671.863037,221.871979 675.774170,242.122574 
	C680.632812,267.279327 671.280334,287.381470 648.827637,300.054016 
	C647.115723,301.020264 645.423218,302.020966 643.280273,303.261078 
	C660.901917,329.725342 678.284729,355.830902 696.112488,382.604706 
	C694.072998,382.788910 692.857300,382.991608 691.641235,382.994049 
	C680.309998,383.016693 668.974426,383.164551 657.651672,382.854767 
	C655.635193,382.799591 652.863831,381.310699 651.808167,379.626770 
	C640.236084,361.168884 628.935547,342.540771 617.361450,323.652344 
M589.912354,256.500000 
	C589.912354,264.594513 589.912354,272.688995 589.912354,280.795441 
	C597.738708,280.795441 604.892517,281.037659 612.017578,280.690582 
	C615.447754,280.523468 618.913025,279.514343 622.208313,278.421844 
	C634.106567,274.477051 639.896057,264.245880 637.687500,251.805252 
	C636.612732,245.751038 634.192871,240.616058 628.542969,237.712891 
	C616.363220,231.454407 603.251587,232.337814 589.912354,232.343552 
	C589.912354,240.520889 589.912354,248.010468 589.912354,256.500000 
z"/>
<path fill="#F5F5F6" opacity="1.000000" stroke="none" 
	d="
M1808.916016,378.180664 
	C1796.730225,361.322906 1784.750366,344.767029 1772.468262,327.793457 
	C1767.254883,331.884949 1762.321411,335.511932 1757.734985,339.534698 
	C1756.637817,340.497070 1756.307373,342.773712 1756.288208,344.453461 
	C1756.164795,355.283936 1756.225708,366.116577 1756.226074,376.948486 
	C1756.226074,378.740173 1756.225952,380.531830 1756.225952,382.662292 
	C1743.586914,382.662292 1731.507812,382.662292 1719.037598,382.662292 
	C1719.037598,318.716644 1719.037598,254.675995 1719.037598,190.024307 
	C1730.536377,190.024307 1742.141235,189.974747 1753.743408,190.129227 
	C1754.568726,190.140213 1755.404663,191.622360 1756.165771,192.482376 
	C1756.335693,192.674301 1756.220825,193.127594 1756.219727,193.460495 
	C1756.107544,225.618668 1756.052612,257.777283 1755.822632,289.934631 
	C1755.782959,295.494110 1755.000488,301.048279 1754.507690,307.277771 
	C1755.711304,306.609985 1756.184448,306.482300 1756.458130,306.176361 
	C1773.533325,287.086914 1790.577881,267.969971 1807.691650,248.915039 
	C1808.627319,247.873199 1810.118408,246.681915 1811.364502,246.666702 
	C1824.653076,246.504395 1837.944458,246.565857 1852.640137,246.565857 
	C1833.865234,266.779694 1815.968140,286.048584 1797.704346,305.712280 
	C1816.954712,331.218781 1836.122803,356.616180 1856.035767,383.000488 
	C1842.532837,383.000488 1830.285889,382.827087 1818.048828,383.097565 
	C1813.941284,383.188354 1810.922241,382.308960 1808.916016,378.180664 
z"/>
<path fill="#F4F4F6" opacity="1.000000" stroke="none" 
	d="
M1472.483398,279.304504 
	C1465.748047,282.317749 1465.669434,282.356628 1462.655396,276.268188 
	C1459.503540,269.901459 1456.523560,263.449585 1453.310913,256.704102 
	C1464.093872,250.947769 1475.142334,247.605423 1486.673828,245.760712 
	C1499.900879,243.644760 1513.132080,243.272827 1526.326416,246.099731 
	C1550.806763,251.344727 1563.304810,264.981873 1563.956299,289.932312 
	C1564.743164,320.064362 1564.163696,350.232147 1564.156738,380.384460 
	C1564.156494,381.022949 1563.925659,381.661407 1563.668213,382.994263 
	C1555.597046,382.994263 1547.495605,383.143311 1539.412354,382.827942 
	C1538.246826,382.782440 1536.757935,380.681610 1536.125000,379.224945 
	C1534.027588,374.398682 1532.253296,369.432007 1530.248413,364.243225 
	C1524.986694,368.872681 1520.416138,373.372955 1515.364990,377.246521 
	C1501.328369,388.010834 1464.223022,389.819733 1449.329468,371.810944 
	C1438.372681,358.562225 1434.879395,325.133698 1453.917847,311.690338 
	C1464.569458,304.169128 1476.769287,301.068909 1489.499023,300.012390 
	C1501.570557,299.010437 1513.687622,298.555786 1525.750000,297.862427 
	C1529.536011,284.050964 1521.458740,273.102600 1507.312012,272.362823 
	C1495.207642,271.729828 1483.958130,275.016998 1472.483398,279.304504 
M1480.074341,335.881897 
	C1479.982788,339.656708 1478.953125,343.741791 1480.069458,347.117218 
	C1481.141235,350.358582 1483.862061,354.097351 1486.850098,355.490295 
	C1504.110352,363.536652 1524.402954,351.880463 1526.524536,333.070984 
	C1526.858154,330.112762 1526.500610,327.083008 1526.659912,324.096863 
	C1526.812012,321.244965 1525.642944,320.236267 1522.831299,320.449219 
	C1514.884766,321.051117 1506.871338,321.090210 1498.989502,322.140045 
	C1490.765991,323.235321 1483.704956,326.732697 1480.074341,335.881897 
z"/>
<path fill="#F4F4F5" opacity="1.000000" stroke="none" 
	d="
M1954.933838,356.180420 
	C1965.884644,353.392242 1976.386841,350.626038 1987.545654,347.686920 
	C1987.545654,356.207520 1987.749878,365.114166 1987.327148,373.990936 
	C1987.262939,375.338501 1984.465454,376.964020 1982.628174,377.755035 
	C1966.677734,384.622284 1949.854370,385.928589 1932.758423,385.143372 
	C1921.513184,384.626892 1910.699585,382.254272 1900.582397,377.135284 
	C1884.257080,368.875153 1874.255981,355.606903 1870.012939,337.988556 
	C1865.709717,320.120972 1866.293213,302.267090 1872.106567,284.864258 
	C1878.343140,266.193909 1890.795410,253.267654 1909.938599,247.591202 
	C1928.761230,242.009903 1947.410278,242.462296 1965.347412,250.998795 
	C1981.596313,258.731934 1990.875244,272.215973 1993.729492,289.577820 
	C1995.517822,300.455933 1995.331177,311.658752 1996.066895,323.287292 
	C1965.420044,323.287292 1936.008301,323.287292 1906.689087,323.287292 
	C1904.208252,337.864349 1915.548828,353.716309 1930.635742,355.937622 
	C1938.429565,357.085144 1946.525635,356.180023 1954.933838,356.180420 
M1916.531494,298.177979 
	C1930.923828,298.177979 1945.316162,298.177979 1959.708252,298.177979 
	C1959.439453,281.233917 1949.697632,271.329742 1934.044067,271.293945 
	C1917.339233,271.255737 1907.444946,280.963776 1907.148315,298.177979 
	C1909.948608,298.177979 1912.745361,298.177979 1916.531494,298.177979 
z"/>
<path fill="#F4F4F5" opacity="1.000000" stroke="none" 
	d="
M746.409424,379.713806 
	C719.378052,368.365417 708.789429,346.766907 707.817749,319.399384 
	C707.188599,301.677887 709.684509,284.398987 720.092590,269.360840 
	C730.151917,254.826584 744.503296,247.246063 761.856750,244.950745 
	C776.316589,243.038162 790.442139,244.095779 803.873169,250.082336 
	C820.462708,257.476685 830.545471,270.552185 833.737549,288.140167 
	C835.767700,299.325500 835.716736,310.888580 836.642395,322.843719 
	C833.601440,323.043335 831.683838,323.277039 829.765991,323.278778 
	C803.604126,323.302368 777.441589,323.390625 751.281189,323.197235 
	C746.958557,323.165283 746.008301,324.185638 746.621887,328.513458 
	C749.085144,345.888031 760.794922,356.432159 778.333313,356.994507 
	C794.093506,357.499878 809.086792,354.467041 823.513489,348.271240 
	C824.682800,347.769043 825.899048,347.376160 827.923462,346.624146 
	C827.923462,356.017395 828.124023,364.763519 827.723633,373.482056 
	C827.657898,374.914062 825.177185,376.736023 823.428467,377.511841 
	C807.367249,384.637329 790.327515,386.314484 773.101196,384.970490 
	C764.243469,384.279449 755.538635,381.629181 746.409424,379.713806 
M750.877075,283.536591 
	C749.438171,288.177185 747.999207,292.817780 746.433167,297.868408 
	C764.936584,297.868408 782.350952,297.868408 799.745972,297.868408 
	C800.374695,286.458801 794.247314,276.178101 784.793274,272.983490 
	C773.222473,269.073578 758.163025,270.872559 750.877075,283.536591 
z"/>
<path fill="#F5F5F6" opacity="1.000000" stroke="none" 
	d="
M879.030701,246.520782 
	C884.657227,246.651093 891.005676,245.003143 894.565125,247.435928 
	C897.811523,249.654755 898.033569,256.297546 899.591003,260.989685 
	C899.941284,262.044952 900.301636,263.096893 900.971497,265.080627 
	C902.430603,263.692322 903.557800,262.895142 904.333130,261.839447 
	C912.055115,251.325409 922.985657,246.865662 935.410645,244.921585 
	C945.307129,243.373093 954.997681,244.031769 964.513855,246.959259 
	C982.112976,252.373352 993.501526,265.959900 993.831482,284.379059 
	C994.416260,317.014709 993.995483,349.668335 993.995483,383.000122 
	C992.142029,383.000122 990.211304,383.027618 988.281494,382.995544 
	C978.001038,382.824768 967.720703,382.639099 957.440430,382.458618 
	C957.196899,372.193390 956.857300,361.929382 956.731079,351.662689 
	C956.507812,333.510223 956.582092,315.352386 956.180054,297.204620 
	C956.030273,290.442963 954.026672,283.984924 948.773376,279.224426 
	C938.928955,270.303375 917.464111,274.017822 910.890808,285.626923 
	C905.353149,295.406891 904.479675,306.197601 904.373657,317.040680 
	C904.174988,337.365967 904.230530,357.695221 904.389648,378.021179 
	C904.419800,381.876892 903.422668,383.212219 899.359192,383.099487 
	C888.728271,382.804413 878.083740,383.000000 867.102295,383.000000 
	C867.102295,337.505981 867.102295,292.300446 867.102295,246.520752 
	C870.951233,246.520752 874.744263,246.520752 879.030701,246.520782 
z"/>
<path fill="#F3F3F4" opacity="1.000000" stroke="none" 
	d="
M1032.801514,250.861832 
	C1038.775391,248.351379 1041.634155,243.995789 1043.289795,238.181641 
	C1045.102661,231.815414 1047.703735,225.663193 1050.180908,219.506134 
	C1050.629395,218.391678 1052.115601,216.969147 1053.161011,216.937134 
	C1060.457397,216.713791 1067.763672,216.819061 1075.474609,216.819061 
	C1075.474609,226.690033 1075.474609,236.126389 1075.474609,246.227600 
	C1088.413818,246.227600 1100.960571,246.227600 1113.871338,246.227600 
	C1113.871338,256.062225 1113.871338,265.231232 1113.871338,274.817078 
	C1101.209473,274.817078 1088.782227,274.817078 1076.001099,274.817078 
	C1075.876221,276.621094 1075.693237,278.043732 1075.691895,279.466553 
	C1075.673096,299.457031 1075.659912,319.447571 1075.687012,339.438019 
	C1075.701172,349.936829 1080.774780,355.305542 1091.356689,354.881470 
	C1099.225830,354.566162 1107.048462,353.093353 1115.675049,352.040466 
	C1115.675049,357.733429 1115.674683,363.956268 1115.675171,370.179108 
	C1115.675781,379.501556 1115.744385,379.768066 1106.625732,382.109009 
	C1092.617920,385.705109 1078.499146,386.828369 1064.223022,383.155334 
	C1050.107910,379.523743 1042.043213,370.246185 1039.124023,356.422424 
	C1037.895874,350.607025 1037.481812,344.534576 1037.426025,338.572174 
	C1037.229980,317.585907 1037.349854,296.596649 1037.349854,275.032318 
	C1031.601807,275.032318 1025.876465,275.032318 1019.650940,275.032318 
	C1019.650940,269.835632 1019.481506,265.196747 1019.767334,260.586060 
	C1019.840759,259.401794 1021.127991,257.975403 1022.239868,257.232452 
	C1025.553467,255.018631 1029.057007,253.089127 1032.801514,250.861832 
z"/>
<path fill="#F5F5F6" opacity="1.000000" stroke="none" 
	d="
M2104.482910,246.520401 
	C2105.612061,247.264618 2106.851807,247.995239 2106.864014,248.745834 
	C2107.001709,257.210907 2106.951172,265.679016 2106.951172,274.681610 
	C2094.030273,274.681610 2081.458008,274.681610 2068.261230,274.681610 
	C2068.261230,276.817932 2068.260986,278.419922 2068.260986,280.021881 
	C2068.260742,299.674469 2068.254639,319.327057 2068.263184,338.979645 
	C2068.267822,349.862671 2073.247070,355.007965 2084.010742,354.967987 
	C2087.983887,354.953247 2091.993896,354.665558 2095.916016,354.050110 
	C2099.831299,353.435791 2103.657715,352.255402 2108.102783,351.183319 
	C2108.102783,360.034241 2108.155029,368.631927 2108.025391,377.226837 
	C2108.011963,378.125854 2107.106689,379.552704 2106.309326,379.819366 
	C2088.255127,385.856354 2069.987305,388.204407 2051.638916,381.361053 
	C2039.541748,376.849182 2033.691650,367.031372 2031.413452,354.906342 
	C2030.496948,350.028442 2030.121704,344.986572 2030.089478,340.015503 
	C2029.950562,318.546478 2030.030029,297.076050 2030.030029,274.978455 
	C2024.201294,274.978455 2018.481934,274.978455 2012.199707,274.978455 
	C2012.199707,269.757935 2011.983887,265.132263 2012.340088,260.551086 
	C2012.438599,259.285675 2014.004395,257.578888 2015.297119,257.047150 
	C2029.066650,251.382690 2036.653198,241.119507 2040.354126,226.782379 
	C2042.988647,216.576660 2043.882935,216.807495 2054.612061,216.807495 
	C2058.916504,216.807495 2063.220947,216.807495 2068.260986,216.807495 
	C2068.260986,225.255707 2068.507812,233.345322 2068.161377,241.409454 
	C2067.976074,245.730560 2069.503906,246.713379 2073.547607,246.606323 
	C2083.699951,246.337509 2093.864014,246.516602 2104.482910,246.520401 
z"/>
<path fill="#F3F3F5" opacity="1.000000" stroke="none" 
	d="
M1603.169800,250.366379 
	C1603.943848,248.773605 1604.692627,246.685822 1605.498169,246.663696 
	C1614.131958,246.426758 1622.774658,246.516220 1631.460815,246.516220 
	C1633.476440,254.575455 1635.386841,262.213562 1637.710815,271.505463 
	C1651.278809,250.766479 1668.366577,240.377090 1693.118530,245.511459 
	C1692.212036,256.881348 1691.296021,268.370117 1690.427734,279.259155 
	C1682.460449,279.812927 1674.987305,279.740936 1667.729248,280.955322 
	C1650.628784,283.816406 1641.024048,295.472473 1640.934326,312.878540 
	C1640.824341,334.203827 1640.908936,355.530090 1640.909302,376.855927 
	C1640.909302,378.654816 1640.909302,380.453735 1640.909302,382.623291 
	C1628.182617,382.623291 1615.966309,382.623291 1603.170776,382.623291 
	C1603.170776,338.675934 1603.170776,294.753174 1603.169800,250.366379 
z"/>
<path fill="#222434" opacity="1.000000" stroke="none" 
	d="
M392.090576,222.028976 
	C392.089752,271.974701 392.029297,321.426788 392.179382,370.878265 
	C392.193604,375.560944 390.634064,376.719208 386.355103,375.895264 
	C324.453949,363.975983 282.895081,328.457306 261.889099,268.927734 
	C260.330811,264.511627 262.393677,263.947296 265.916077,263.407440 
	C302.207092,257.845367 334.340546,243.177292 362.025146,219.001678 
	C367.032623,214.628876 371.526093,209.668686 376.513733,205.271042 
	C377.610352,204.304138 380.031494,203.906143 381.450195,204.392075 
	C389.540558,207.163071 394.171997,212.333038 392.090576,222.028976 
z"/>
<path fill="#222434" opacity="1.000000" stroke="none" 
	d="
M81.822296,275.000000 
	C81.822212,256.169189 82.182396,237.827667 81.638306,219.513016 
	C81.431725,212.559647 83.486839,208.514816 89.711227,205.472534 
	C93.770905,203.488281 95.923126,203.312378 99.338844,206.858582 
	C129.090134,237.746231 165.228851,256.656250 207.605759,263.543671 
	C209.213989,263.805054 210.810638,264.137878 213.269531,264.597626 
	C211.471085,269.727203 210.112244,274.480865 208.177536,278.987274 
	C185.272995,332.338196 145.206223,364.457855 88.261658,375.529999 
	C81.907928,376.765411 81.830353,376.524414 81.829292,369.987000 
	C81.824158,338.491333 81.824234,306.995667 81.822296,275.000000 
z"/>
<path fill="#222635" opacity="1.000000" stroke="none" 
	d="
M158.967682,209.076538 
	C147.490540,201.993744 136.760727,194.557831 127.241295,184.124664 
	C157.774231,166.490128 187.691071,149.211441 218.556366,131.384964 
	C218.787811,134.043762 219.062714,135.736069 219.063416,137.428482 
	C219.075180,165.754578 219.061844,194.080704 219.031082,222.406799 
	C219.023895,229.025421 218.962341,229.160477 212.221710,228.038696 
	C193.472870,224.918594 175.827011,218.628922 158.967682,209.076538 
z"/>
<path fill="#222535" opacity="1.000000" stroke="none" 
	d="
M254.839584,183.000000 
	C254.839462,165.901794 254.839462,149.303589 254.839462,131.185211 
	C286.036469,149.185944 316.125214,166.547180 346.654633,184.162720 
	C337.605286,193.773148 327.828796,201.129318 317.297058,207.524490 
	C300.170288,217.924362 281.652313,224.612579 261.914001,227.904419 
	C255.029099,229.052643 254.853378,228.792419 254.849594,221.941223 
	C254.842529,209.127487 254.842606,196.313736 254.839584,183.000000 
z"/>
<path fill="#232436" opacity="1.000000" stroke="none" 
	d="
M589.912354,256.000000 
	C589.912354,248.010468 589.912354,240.520889 589.912354,232.343552 
	C603.251587,232.337814 616.363220,231.454407 628.542969,237.712891 
	C634.192871,240.616058 636.612732,245.751038 637.687500,251.805252 
	C639.896057,264.245880 634.106567,274.477051 622.208313,278.421844 
	C618.913025,279.514343 615.447754,280.523468 612.017578,280.690582 
	C604.892517,281.037659 597.738708,280.795441 589.912354,280.795441 
	C589.912354,272.688995 589.912354,264.594513 589.912354,256.000000 
z"/>
<path fill="#252637" opacity="1.000000" stroke="none" 
	d="
M1480.187866,335.500854 
	C1483.704956,326.732697 1490.765991,323.235321 1498.989502,322.140045 
	C1506.871338,321.090210 1514.884766,321.051117 1522.831299,320.449219 
	C1525.642944,320.236267 1526.812012,321.244965 1526.659912,324.096863 
	C1526.500610,327.083008 1526.858154,330.112762 1526.524536,333.070984 
	C1524.402954,351.880463 1504.110352,363.536652 1486.850098,355.490295 
	C1483.862061,354.097351 1481.141235,350.358582 1480.069458,347.117218 
	C1478.953125,343.741791 1479.982788,339.656708 1480.187866,335.500854 
z"/>
<path fill="#242536" opacity="1.000000" stroke="none" 
	d="
M1916.036865,298.177979 
	C1912.745361,298.177979 1909.948608,298.177979 1907.148315,298.177979 
	C1907.444946,280.963776 1917.339233,271.255737 1934.044067,271.293945 
	C1949.697632,271.329742 1959.439453,281.233917 1959.708252,298.177979 
	C1945.316162,298.177979 1930.923828,298.177979 1916.036865,298.177979 
z"/>
<path fill="#232436" opacity="1.000000" stroke="none" 
	d="
M751.027039,283.197632 
	C758.163025,270.872559 773.222473,269.073578 784.793274,272.983490 
	C794.247314,276.178101 800.374695,286.458801 799.745972,297.868408 
	C782.350952,297.868408 764.936584,297.868408 746.433167,297.868408 
	C747.999207,292.817780 749.438171,288.177185 751.027039,283.197632 
z"/>
</svg>